<?xml version="1.0" standalone="no"?>
<!DOCTYPE svg PUBLIC "-//W3C//DTD SVG 20010904//EN"
 "http://www.w3.org/TR/2001/REC-SVG-20010904/DTD/svg10.dtd">
<svg version="1.0" xmlns="http://www.w3.org/2000/svg"
 width="512.000000pt" height="512.000000pt" viewBox="0 0 512.000000 512.000000"
 preserveAspectRatio="xMidYMid meet">
<metadata>
Created by potrace 1.14, written by Peter Selinger 2001-2017
</metadata>
<g transform="translate(0.000000,512.000000) scale(0.100000,-0.100000)"
fill="#000000" stroke="none">
<path d="M2985 5110 c-357 -54 -619 -198 -859 -471 -90 -102 -196 -292 -241
-429 -10 -30 -19 -58 -21 -61 -2 -3 -36 26 -76 65 -371 360 -943 394 -1368 82
-148 -108 -275 -275 -345 -451 -147 -368 -69 -796 198 -1084 20 -22 37 -42 37
-45 0 -2 -48 -6 -107 -8 -92 -3 -113 -6 -139 -25 -68 -49 -64 40 -64 -1322 0
-1359 -4 -1282 63 -1332 l32 -24 1690 -2 c1216 -2 1699 0 1724 8 22 8 77 55
155 134 409 414 515 523 527 545 10 18 15 78 19 207 l5 183 295 -196 c412
-273 420 -278 472 -270 54 9 80 23 110 61 l23 30 3 930 c2 511 0 945 -3 964
-13 68 -101 122 -176 107 -25 -5 -209 -122 -639 -408 l-85 -56 -7 57 c-17 145
-89 263 -211 343 l-37 25 61 49 c251 201 434 530 477 859 9 64 8 316 0 375 -4
25 -14 74 -23 110 -9 36 -17 72 -20 81 -22 95 -100 259 -180 380 -196 295
-522 512 -860 573 -16 3 -41 8 -55 12 -39 9 -320 12 -375 4z m345 -304 c14 -3
41 -9 60 -12 112 -21 293 -107 399 -188 218 -168 356 -398 406 -676 13 -70 14
-285 2 -335 -2 -11 -8 -38 -12 -60 -12 -67 -53 -184 -91 -259 -95 -186 -249
-343 -437 -444 -70 -38 -209 -88 -268 -97 -24 -4 -47 -9 -52 -12 -15 -9 -260
-11 -312 -3 -95 16 -112 20 -181 41 -433 133 -734 548 -732 1010 1 514 365
947 868 1033 73 13 299 14 350 2z m-2104 -616 c227 -54 406 -196 506 -400 50
-102 70 -186 74 -305 6 -206 -53 -370 -191 -526 -99 -112 -265 -207 -411 -235
-51 -10 -227 -11 -279 -2 -297 52 -546 292 -609 588 -18 80 -13 264 7 335 39
134 94 232 186 328 111 117 270 203 416 224 22 3 42 7 44 9 13 12 186 1 257
-16z m867 -1251 c32 -42 93 -111 137 -153 l80 -76 -255 0 c-140 0 -255 1 -255
3 0 1 18 23 41 47 43 48 149 201 149 216 0 17 32 56 39 47 4 -4 33 -42 64 -84z
m1740 -549 c18 -11 43 -37 55 -59 l22 -39 0 -735 0 -736 -257 -261 -256 -260
-1549 0 -1548 0 0 1055 0 1055 1749 0 c1728 0 1750 0 1784 -20z m985 -1039
l-3 -308 -120 79 c-66 43 -202 133 -303 199 l-182 121 2 220 3 221 300 198
300 197 3 -309 c1 -170 1 -448 0 -618z"/>
<path d="M3040 4194 c-79 -24 -133 -57 -195 -119 -279 -277 -91 -748 305 -764
113 -4 241 48 326 133 246 246 137 649 -202 751 -55 16 -176 16 -234 -1z m175
-294 c78 -30 113 -126 75 -204 -22 -47 -81 -86 -130 -86 -71 0 -150 78 -150
149 0 103 109 177 205 141z"/>
<path d="M955 3899 c-97 -23 -206 -99 -265 -184 -92 -133 -103 -312 -29 -460
78 -157 260 -258 433 -241 120 12 200 49 281 131 179 180 179 451 0 631 -111
112 -269 158 -420 123z m158 -298 c32 -13 70 -49 85 -84 55 -126 -88 -253
-207 -186 -51 28 -70 56 -77 111 -14 109 97 197 199 159z"/>
<path d="M692 2093 c-106 -52 -106 -210 2 -262 42 -21 55 -21 817 -21 734 0
776 1 815 19 46 21 84 84 84 137 0 42 -40 104 -80 125 -33 18 -74 19 -820 19
-703 0 -788 -2 -818 -17z"/>
<path d="M2790 2091 c-40 -21 -80 -83 -80 -123 0 -53 30 -107 75 -133 50 -30
86 -31 141 -6 46 21 84 84 84 137 -1 71 -76 144 -150 144 -19 0 -51 -8 -70
-19z"/>
<path d="M3395 2094 c-109 -56 -109 -211 -1 -263 54 -26 79 -26 134 0 76 37
102 128 59 203 -39 68 -125 95 -192 60z"/>
<path d="M945 1495 c-80 -22 -136 -56 -200 -120 -66 -65 -98 -120 -120 -205
-63 -236 86 -482 330 -546 67 -18 1315 -20 1396 -3 87 19 159 58 224 124 250
249 128 675 -216 754 -28 7 -292 10 -704 10 -524 -1 -670 -4 -710 -14z m172
-297 c37 -17 57 -36 77 -75 50 -99 -31 -215 -146 -209 -48 3 -87 26 -117 69
-24 34 -21 125 6 163 41 57 118 79 180 52z m706 -25 c-10 -48 -9 -188 2 -230
l8 -33 -173 0 -172 0 9 43 c10 54 10 171 -1 220 l-8 37 172 0 171 0 -8 -37z
m494 25 c37 -17 57 -36 77 -75 21 -42 20 -78 -4 -131 -33 -73 -131 -103 -199
-61 -42 26 -53 37 -69 72 -52 118 77 247 195 195z"/>
</g>
</svg>
